<?xml version="1.0" encoding="UTF-8"?>
<svg width="116px" height="116px" viewBox="0 0 116 116" version="1.1" xmlns="http://www.w3.org/2000/svg" xmlns:xlink="http://www.w3.org/1999/xlink">
    <!-- Generator: Sketch 55 (78076) - https://sketchapp.com -->
    <title>Group</title>
    <desc>Created with Sketch.</desc>
    <g id="Page-1" stroke="none" stroke-width="1" fill="none" fill-rule="evenodd">
        <g id="Group" fill-rule="nonzero">
            <circle id="Oval" fill="#FFFFFF" cx="58" cy="58" r="58"></circle>
            <g id="badge" transform="translate(8.000000, 8.000000)" fill="#006290">
                <path d="M69.3678968,61.2292839 L66.3292839,61.2292839 L70.7514774,43.5421548 L66.3753484,43.5421548 L66.3753484,46.4902839 L63.4272194,46.4902839 L63.4272194,40.5940258 L73.7440258,40.5940258 L73.7440258,43.7231226 L69.3678968,61.2292839 Z M56.5701871,40.5940258 L58.6529613,40.5940258 L58.6529613,61.2292839 L55.7048323,61.2292839 L55.7048323,45.6265742 L54.2324129,47.1006387 L52.1463484,45.0162194 L56.5701871,40.5940258 Z M45.0441871,58.2811548 L45.6545419,57.6708 L45.6545419,44.1525097 L45.0441871,43.5421548 L41.8427032,43.5421548 L41.2307032,44.1525097 L41.2307032,57.6708 L41.8427032,58.2811548 L45.0441871,58.2811548 Z M40.6203484,61.2292839 L38.2825742,58.8915097 L38.2825742,42.9301548 L40.6203484,40.5940258 L46.2648968,40.5940258 L48.602671,42.9301548 L48.602671,58.8915097 L46.2648968,61.2292839 L40.6203484,61.2292839 Z M31.0915742,40.5940258 L33.1776387,40.5940258 L33.1776387,61.2292839 L30.2295097,61.2292839 L30.2295097,45.6265742 L28.7538,47.1006387 L26.6710258,45.0162194 L31.0915742,40.5940258 Z M79.9824774,78.9361548 L82.4716065,81.3594774 L81.7115419,82.1376387 L79.2240581,79.7143161 L75.4155097,78.3438968 L76.2413806,77.4982839 L78.5988968,78.3471871 L77.6924129,76.0110581 L78.5182839,75.1654452 L79.9824774,78.9361548 Z M77.040929,84.8784774 L77.6414129,85.7059935 L75.0042194,87.6226065 L70.7942516,81.8299935 L73.4330903,79.9133806 L74.0335742,80.7425419 L72.2765419,82.0191871 L73.4775097,83.6742194 L74.7985742,82.7167355 L75.3990581,83.5426065 L74.0796387,84.5017355 L75.2838968,86.1567677 L77.040929,84.8784774 Z M71.6184774,88.4616387 L72.0889935,89.3681226 L69.1968,90.8734452 L65.8998968,84.5280581 L66.8656065,84.0262839 L69.6887032,89.4651871 L71.6184774,88.4616387 Z M65.7172839,91.2008323 L66.044671,92.1681871 L62.9599935,93.2260258 L60.6518323,86.4594774 L61.6800581,86.1074129 L63.6591871,91.9066065 L65.7172839,91.2008323 Z M56.1918,91.0099935 L55.7969613,88.6968968 L55.9828645,88.4501226 L57.1476387,88.2527032 L57.405929,88.4238 L57.8007677,90.7352516 L56.1918,91.0099935 Z M57.4190903,87.1701871 L55.3675742,87.5173161 L54.6535742,88.4632839 L55.7212839,94.7198323 L56.793929,94.5372194 L56.3645419,92.0168323 L57.9718645,91.7420903 L58.4028968,94.2624774 L59.4738968,94.0798645 L58.4061871,87.8233161 L57.4190903,87.1701871 Z M50.8384452,87.8364774 L51.9555097,87.8578645 L50.0833161,94.9847032 L49.2179613,94.9682516 L47.5793806,87.7821871 L48.6948,87.8002839 L49.6967032,92.1912194 L50.8384452,87.8364774 Z M39.5032839,89.9455742 L37.9370903,89.4948 L38.5819935,87.240929 L38.8567355,87.0994452 L39.9935419,87.4251871 L40.1498323,87.6917032 L39.5032839,89.9455742 Z M38.7053806,85.9906065 L37.6541226,86.5335097 L35.9020258,92.6354129 L36.9483484,92.9348323 L37.6541226,90.4786065 L39.2219613,90.9293806 L38.5161871,93.3872516 L39.5625097,93.686671 L41.3113161,87.5864129 L40.7075419,86.5664129 L38.7053806,85.9906065 Z M33.0871548,87.3610258 L32.792671,87.4531548 L31.5275419,86.8411548 L32.6363806,84.537929 L33.9015097,85.149929 L34.0150258,85.4394774 L33.0871548,87.3610258 Z M32.1033484,83.1461226 L28.9956387,89.5918645 L29.9745097,90.0640258 L31.0833484,87.7608 L32.7548323,88.5702194 L33.8834129,88.2132194 L35.1765097,85.5299613 L34.7520581,84.4260581 L32.1033484,83.1461226 Z M27.0280258,84.1134774 L25.6987355,83.1675097 L27.0592839,81.2558323 L27.3652839,81.2130581 L28.3277032,81.8974452 L28.3885742,82.2018 L27.0280258,84.1134774 Z M29.2884774,81.324929 L27.590671,80.1190258 L26.4193161,80.2802516 L22.7374452,85.455929 L23.6225419,86.0860258 L25.1064774,84.0016065 L26.4324774,84.9475742 L24.9518323,87.0319935 L25.836929,87.6620903 L29.5188,82.4864129 L29.2884774,81.324929 Z M25.0077677,77.978671 L19.9554774,83.0309613 L19.3138645,82.3909935 L20.9195419,78.2221548 L18.0322839,81.1077677 L17.2623484,80.3394774 L22.3129935,75.2855419 L22.9562516,75.9271548 L21.3505742,80.0959935 L24.2378323,77.2103806 L25.0077677,77.978671 Z M89.1164129,63.8977355 L93.1536387,63.6098323 L92.7423484,64.718671 L90.2417032,64.8947032 L92.0168323,66.6648968 L91.6038968,67.7737355 L88.7363806,64.9144452 L85.4822516,63.7036065 L85.8606387,62.6852516 L89.1164129,63.8977355 Z M91.0642839,56.4500903 L93.5797355,56.9008645 L93.329671,58.2910258 L93.0828968,58.4752839 L90.9853161,58.1001871 L90.8158645,57.8402516 L91.0642839,56.4500903 Z M87.5436387,55.8183484 L90.0574452,56.2691226 L89.9291226,56.9946387 L87.209671,57.6905419 L87.0023806,58.853671 L89.7613161,58.1478968 L90.3782516,59.0955097 L93.309929,59.6203161 L94.2575419,58.9145419 L94.7757677,56.0108323 L87.7344774,54.7489935 L87.5436387,55.8183484 Z M87.9417677,49.0271226 L95.0998645,49.143929 L95.0422839,52.4046387 L94.0206387,52.3865419 L94.0601226,50.2132839 L92.0135419,50.1803806 L91.9855742,51.8107355 L90.963929,51.7942839 L90.9918968,50.163929 L88.9453161,50.1310258 L88.9091226,52.3042839 L87.8858323,52.2878323 L87.9417677,49.0271226 Z M87.311671,43.3710581 L94.3973806,42.411929 L94.5438,43.4911548 L88.4698645,44.3120903 L88.7594129,46.4688968 L87.7476387,46.6054452 L87.311671,43.3710581 Z M85.832671,37.8663484 L92.6995742,35.8493806 L93.0055742,36.8924129 L87.1208323,38.6214774 L87.7344774,40.7091871 L86.7523161,40.9970903 L85.832671,37.8663484 Z M84.5050258,34.7059935 L91.0675742,31.874671 L91.5002516,32.8716387 L84.9377032,35.7029613 L84.5050258,34.7059935 Z M87.6407032,27.5824452 L86.9777032,26.4588 L87.8595097,25.938929 L89.7366387,29.1272516 L88.8548323,29.6454774 L88.1918323,28.5201871 L82.9042839,31.6311871 L82.3515097,30.6934452 L87.6407032,27.5824452 Z M81.324929,25.2693484 L81.1538323,21.8737355 L82.6854774,20.6003806 L83.8617677,20.7451548 L85.1943484,22.3458968 L85.1252516,23.5271226 L84.1759935,24.3151548 L83.4784452,23.4794129 L84.1019613,22.9611871 L84.1200581,22.6518968 L83.364929,21.7454129 L83.0556387,21.7075742 L82.2281226,22.3952516 L82.3992194,25.7908645 L80.8675742,27.0625742 L79.692929,26.9194452 L78.3587032,25.3187032 L78.4294452,24.1374774 L79.3770581,23.3494452 L80.0762516,24.1851871 L79.4527355,24.7034129 L79.4329935,25.0110581 L80.1897677,25.9191871 L80.4974129,25.9570258 L81.324929,25.2693484 Z M75.2937677,22.2899613 L80.1700258,17.0484774 L80.967929,17.7888 L76.0883806,23.0286387 L75.2937677,22.2899613 Z M74.847929,14.1826065 L75.989671,15.0002516 L76.0505419,15.3046065 L73.3195742,19.1180903 L73.0135742,19.1592194 L71.8718323,18.3415742 L74.847929,14.1826065 Z M73.9578968,20.0953161 L77.1791226,15.5925097 L76.9504452,14.4310258 L74.5600258,12.7184129 L70.3928323,18.5406387 L72.7832516,20.2532516 L73.9578968,20.0953161 Z M64.6462839,15.6254129 L61.5862839,14.4935419 L64.0671871,7.78457419 L67.1304774,8.91809032 L66.7751226,9.87557419 L64.7334774,9.12044516 L64.0244129,11.0370581 L65.5544129,11.6029935 L65.2007032,12.5621226 L63.6690581,11.9961871 L62.9599935,13.9111548 L65.0016387,14.6662839 L64.6462839,15.6254129 Z M56.3102516,13.2843484 L55.620929,12.321929 L56.8432839,6.09170323 L57.9093484,6.30063871 L56.7676065,12.1162839 L56.946929,12.3679935 L58.1051226,12.5950258 L58.3667032,12.4305097 L59.5084452,6.61486452 L60.5745097,6.82544516 L59.3521548,13.055671 L58.3502516,13.6857677 L56.3102516,13.2843484 Z M50.2626387,12.8269935 L49.1751871,12.7973806 L49.3643806,5.63928387 L50.2708645,5.66396129 L51.9736065,9.80154194 L52.0821871,5.71167097 L53.1679935,5.74128387 L52.9804452,12.8993806 L52.0739613,12.8747032 L50.3695742,8.73712258 L50.2626387,12.8269935 Z M43.4878645,13.4241871 L42.5583484,6.32531613 L45.7943806,5.89592903 L45.9259935,6.90934839 L43.7691871,7.19560645 L44.0357032,9.22409032 L45.6528968,9.01021935 L45.7861548,10.0236387 L44.1689613,10.2391548 L44.4338323,12.2676387 L46.5906387,11.9797355 L46.7222516,12.9948 L43.4878645,13.4241871 Z M38.5507355,14.738671 L34.7537032,8.41960645 L35.8181226,8.09057419 L38.1394452,11.9501226 L37.8696387,7.45554194 L38.9357032,7.12486452 L39.3782516,14.4820258 L38.5507355,14.738671 Z M29.4348968,12.2775097 L29.5368968,11.9863161 L30.5881548,11.4434129 L30.8842839,11.5289613 L31.9602194,13.6117355 L30.5091871,14.3602839 L29.4348968,12.2775097 Z M32.1510581,17.5403806 L30.9780581,15.2684129 L32.4290903,14.5198645 L33.6004452,16.7901871 L34.5678,16.2917032 L31.6575097,10.6520903 L30.5190581,10.3279935 L28.6698968,11.2854774 L28.2734129,12.4008968 L31.1837032,18.0405097 L32.1510581,17.5403806 Z M20.8241226,18.2264129 L21.1334129,18.2280581 L24.3299613,21.6615097 L24.3085742,21.9708 L23.2787032,22.9282839 L19.7942516,19.1838968 L20.8241226,18.2264129 Z M25.3351548,22.4133484 L25.4141226,21.2321226 L21.6401226,17.1784452 L20.4572516,17.1718645 L18.3020903,19.175671 L23.1799935,24.4171548 L25.3351548,22.4133484 Z M14.922929,24.8498323 L15.7800581,23.7261871 L16.0844129,23.6751871 L17.7822194,24.9682839 L17.8134774,25.275929 L16.9563484,26.3995742 L14.922929,24.8498323 Z M19.8008323,28.5695419 L17.7690581,27.0198 L18.2148968,26.4357677 L20.9540903,27.0576387 L21.6730258,26.1166065 L18.8927032,25.4848645 L18.7775419,24.3595742 L16.4085097,22.5531871 L15.2404452,22.7473161 L13.4505097,25.0949613 L19.1411226,29.4348968 L19.8008323,28.5695419 Z M17.3857355,32.4455419 L11.1867677,28.8738968 L11.7280258,27.9312194 L17.9269935,31.5028645 L17.3857355,32.4455419 Z M14.8423161,38.0604774 L8.23863871,35.3179935 L8.65486452,34.3128 L11.4845419,35.4890903 L12.1113484,33.9837677 L9.28167097,32.8074774 L9.69625161,31.803929 L16.3032194,34.5480581 L15.8853484,35.5516065 L13.055671,34.3753161 L12.4288645,35.8822839 L15.2601871,37.056929 L14.8423161,38.0604774 Z M7.38150968,42.4398968 L6.3861871,42.2062839 L7.22686452,38.6033806 L8.2221871,38.8353484 L7.9244129,40.1087032 L13.8979935,41.5021548 L13.6528645,42.5616387 L7.67928387,41.1681871 L7.38150968,42.4398968 Z M12.9191226,53.4822194 L5.76267097,53.6993806 L5.66231613,50.4403161 L6.68560645,50.4090581 L6.7514129,52.5823161 L8.79799355,52.5198 L8.74699355,50.8894452 L9.76863871,50.8581871 L9.81963871,52.4885419 L11.8645742,52.4260258 L11.7987677,50.2527677 L12.8220581,50.2215097 L12.9191226,53.4822194 Z M13.9358323,59.6663806 L6.90934839,61.0154129 L6.70205806,59.9493484 L9.71434839,59.3702516 L9.40670323,57.7678645 L6.39605806,58.3469613 L6.1904129,57.2776065 L13.2168968,55.9285742 L13.4208968,56.9946387 L10.4102516,57.5737355 L10.7195419,59.1761226 L13.7301871,58.5970258 L13.9358323,59.6663806 Z M15.4181226,64.0787032 L9.66828387,66.2058968 L10.1190581,67.4315419 L9.15992903,67.7852516 L7.88328387,64.3156065 L8.8424129,63.9618968 L9.2931871,65.1858968 L15.0430258,63.0570581 L15.4181226,64.0787032 Z M50.3794452,98.582671 C33.3569613,98.582671 18.3794129,89.7053806 9.79989677,76.346671 L22.0596387,69.2675419 C28.1747032,78.4047677 38.5836387,84.4326387 50.3794452,84.4326387 C62.1736065,84.4326387 72.5841871,78.4047677 78.6976065,69.2675419 L90.9573484,76.346671 C82.3778323,89.7053806 67.401929,98.582671 50.3794452,98.582671 Z M18.4995097,50.3778 C18.4995097,32.7992516 32.7992516,18.4978645 50.3794452,18.4978645 C67.9579935,18.4978645 82.2593806,32.7992516 82.2593806,50.3778 C82.2593806,67.9563484 67.9579935,82.2593806 50.3794452,82.2593806 C32.7992516,82.2593806 18.4995097,67.9563484 18.4995097,50.3778 Z M50.3794452,2.17457419 C76.958671,2.17457419 98.582671,23.8002194 98.582671,50.3778 C98.582671,59.0971548 96.2448968,67.2752516 92.1780581,74.3395742 L79.9314774,67.268671 C82.7891226,62.2871226 84.4326387,56.5224774 84.4326387,50.3778 C84.4326387,31.599929 69.155671,16.3246065 50.3794452,16.3246065 C31.6015742,16.3246065 16.3246065,31.599929 16.3246065,50.3778 C16.3246065,56.5224774 17.9681226,62.2871226 20.8257677,67.268671 L8.5791871,74.3395742 C4.51399355,67.2752516 2.17457419,59.0971548 2.17457419,50.3778 C2.17457419,23.8002194 23.8002194,2.17457419 50.3794452,2.17457419 Z M50.3794452,-0.000329032258 C22.5992516,-0.000329032258 -0.000329032258,22.5992516 -0.000329032258,50.3778 C-0.000329032258,78.1579935 22.5992516,100.757574 50.3794452,100.757574 C78.1596387,100.757574 100.757574,78.1579935 100.757574,50.3778 C100.757574,22.5992516 78.1596387,-0.000329032258 50.3794452,-0.000329032258 Z" id="Fill-1"></path>
            </g>
        </g>
    </g>
</svg>