<?xml version="1.0" encoding="UTF-8"?>
<svg width="159px" height="30px" viewBox="0 0 159 30" version="1.1" xmlns="http://www.w3.org/2000/svg" xmlns:xlink="http://www.w3.org/1999/xlink">
    <!-- Generator: Sketch 52.6 (67491) - http://www.bohemiancoding.com/sketch -->
    <title>Group 7</title>
    <desc>Created with Sketch.</desc>
    <g id="Round-1" stroke="none" stroke-width="1" fill="none" fill-rule="evenodd">
        <g id="Group-7" fill="#006290">
            <path d="M138.769968,17.4337273 C140.277124,17.4255455 142.925158,16.0073636 143.337557,15.031 C141.56994,15.3596364 140.012591,15.8778182 138.769968,17.4337273 M113.714024,18.4046364 C113.795418,18.496 113.8741,18.5887273 113.955494,18.6787273 C115.332418,17.6546364 116.707985,16.6291818 118.304674,15.4400909 C116.423105,15.3446364 114.134562,16.9578182 113.714024,18.4046364 M118.717073,20.4882727 C119.251564,20.3205455 119.501174,20.2932727 119.692451,20.1773636 C122.147852,18.6855455 124.626315,17.2278182 127.022027,15.6487273 C127.673183,15.2205455 128.034032,14.3941818 128.597011,13.8119091 C128.826272,13.5732727 129.238671,13.5023636 129.568319,13.3564545 C129.575101,13.7164545 129.633434,14.086 129.572388,14.4364545 C129.528978,14.6778182 129.322778,14.8946364 129.153207,15.1864545 C129.839634,14.9737273 130.474511,14.581 131.02935,14.6669091 C131.512291,14.7405455 131.905698,15.3582727 132.365577,15.7564545 C133.047934,15.5737273 133.925638,15.0732727 134.694816,15.1946364 C135.746162,15.3623636 135.701395,16.4600909 135.689186,17.6955455 C136.745958,16.9523636 137.554477,16.3182727 138.429468,15.7823636 C139.464535,15.1482727 140.518594,14.5223636 141.630986,14.0382727 C142.543961,13.6414545 143.461006,13.8323636 144.151502,14.6573636 C144.293943,14.5728182 144.401112,14.4705455 144.524561,14.446 C144.814868,14.3873636 145.113314,14.3641818 145.407691,14.3287273 C145.388699,14.6600909 145.493155,15.0691818 145.331723,15.3091818 C144.862348,16.0073636 144.273594,16.6278182 143.758096,17.2973636 C143.545113,17.5741818 143.397247,17.8973636 143.378254,18.3596364 C143.675344,18.2273636 143.99007,18.1223636 144.269524,17.9600909 C146.40613,16.7219091 148.503396,15.4428182 149.900668,13.3373636 C150.07838,13.0700909 150.581669,13.006 150.935735,12.8478182 C150.922169,13.2419091 151.034765,13.6973636 150.867906,14.0178182 C150.540972,14.6532727 150.058031,15.2137273 149.77722,15.9419091 C150.355121,15.5996364 150.924883,15.2464545 151.510923,14.9150909 C153.321951,13.8950909 154.278337,14.3178182 154.652751,16.4505455 C155.925219,15.7946364 157.158346,15.1591818 158.390116,14.5223636 C158.468797,14.6164545 158.546122,14.7078182 158.624804,14.7991818 C158.422674,15.0596364 158.266668,15.3719091 158.015701,15.5696364 C156.965712,16.3864545 155.911653,17.2019091 154.806044,17.9450909 C154.489962,18.1591818 153.808961,18.3282727 153.629894,18.1673636 C153.3423,17.9082727 153.255479,17.3614545 153.229704,16.9291818 C153.209355,16.5541818 153.391136,16.1696364 153.555282,15.4919091 C152.856646,15.8000909 152.337077,15.9446364 151.917896,16.2282727 C150.589808,17.1269091 149.275287,18.0514545 147.99875,19.0182727 C146.688298,20.011 146.40613,19.9441818 146.060204,18.2778182 C145.577263,18.6037273 145.17843,19.0019091 144.694132,19.1669091 C144.057899,19.3864545 143.248023,19.6687273 142.716246,19.4519091 C142.278072,19.276 142.135632,18.4128182 141.823619,17.7719091 C140.636616,18.016 139.237987,19.5514545 137.75525,17.791 C137.254674,18.091 136.788012,18.4591818 136.256235,18.6623636 C135.856045,18.8178182 135.215741,18.9541818 134.959349,18.7591818 C134.625631,18.5014545 134.518462,17.9191818 134.404509,17.4569091 C134.34075,17.2005455 134.465555,16.9019091 134.504896,16.6223636 C134.423501,16.5555455 134.34075,16.4887273 134.260712,16.4219091 C133.521379,16.9237273 132.765766,17.4050909 132.048138,17.9355455 C131.501438,18.3405455 131.02935,18.8450909 130.467728,19.2269091 C130.209979,19.4014545 129.815215,19.3864545 129.482854,19.456 C129.440801,19.0878182 129.252237,18.6569091 129.385181,18.3650909 C129.697193,17.6778182 130.161142,17.0573636 130.562688,16.411 C130.49079,16.3373636 130.421604,16.2650909 130.349706,16.1914545 C129.569675,16.7478182 128.774722,17.2850909 128.01504,17.866 C127.422217,18.3214545 126.866021,18.8273636 126.305755,19.3237273 C125.395493,20.1282727 125.220495,20.0941818 124.730771,18.9637273 C123.399971,19.7314545 122.093589,20.5319091 120.737014,21.2450909 C119.970549,21.6473636 119.099627,22.1996364 118.257194,21.4414545 C117.378134,20.6505455 117.604682,19.6823636 118.032003,18.751 C118.320953,18.1223636 118.647888,17.5114545 118.820173,16.7819091 C118.056421,17.3764545 117.310305,17.9887273 116.527561,18.5573636 C115.94966,18.9787273 115.360906,19.4055455 114.717889,19.7137273 C113.484763,20.3028182 112.627407,19.831 112.414425,18.526 C112.390006,18.3691818 112.358805,18.2123636 112.316751,17.9723636 C111.20436,18.4019091 110.169293,18.841 109.104381,19.1982727 C108.358265,19.4478182 107.580947,19.6550909 106.802273,19.7532727 C105.16353,19.9605455 104.538149,19.5446364 103.97517,17.9573636 C103.079831,18.3746364 102.206196,18.8178182 101.304074,19.1928182 C100.259511,19.6278182 99.2135911,20.0996364 98.1188349,20.3600909 C97.6182586,20.4814545 96.8002437,20.3055455 96.4909446,19.9591818 C96.1721494,19.6005455 96.0324221,18.7073636 96.2779623,18.331 C97.1339612,17.0150909 98.1690281,15.8069091 99.1918859,14.6000909 C99.3316131,14.4364545 99.7806395,14.521 100.085869,14.491 C100.06959,14.7950909 100.171333,15.1864545 100.015327,15.391 C99.3438223,16.2800909 98.581427,17.1064545 97.8800776,17.9764545 C97.6196152,18.3023636 97.4391907,18.6882727 97.1977203,19.0850909 C97.4229118,19.1600909 97.5260115,19.2323636 97.6060494,19.2146364 C100.355827,18.586 102.855996,17.4473636 105.185235,15.8887273 C106.273209,15.1619091 107.468351,14.5646364 108.674347,14.0382727 C109.330929,13.7532727 109.983442,14.0382727 110.272392,14.7528182 C110.585761,15.5232727 110.028209,15.9132727 109.446238,16.1287273 C108.652642,16.4205455 107.811565,16.7178182 106.979984,16.7519091 C105.85674,16.7996364 105.432132,17.4050909 104.983106,18.5219091 C105.711586,18.5041818 106.281348,18.5778182 106.806343,18.4632727 C109.642942,17.8428182 112.407642,17.0846364 114.716533,15.1932727 C115.839777,14.2741818 117.136663,13.6141818 118.706221,14.4582727 C118.898854,14.5632727 119.456407,14.2428182 119.70873,13.9919091 C121.708322,12.001 123.673999,9.97872727 125.650529,7.96736364 C125.864868,7.74781818 126.045293,7.45736364 126.307112,7.33736364 C126.591993,7.20645455 126.956911,7.23645455 127.286559,7.19690909 C127.316404,7.55418182 127.510394,8.02872727 127.346248,8.24827273 C126.696449,9.11009091 125.858085,9.841 125.227278,10.711 C123.245321,13.4450909 121.317628,16.2146364 119.392648,18.9869091 C119.134898,19.3550909 119.014163,19.8132727 118.717073,20.4882727" id="Fill-1"></path>
            <path d="M29.4656067,17.91038 L29.32894,17.61078 C27.6698067,17.48618 25.2713067,18.76998 24.8708733,20.32818 C26.5600733,19.43918 28.01284,18.67478 29.4656067,17.91038 M29.9507733,16.87718 C30.59174,16.80858 31.1397733,16.58738 31.34614,16.76098 C31.8941733,17.22298 31.4062733,17.64858 31.08374,18.06018 C30.4127067,18.91138 29.7744733,19.78358 29.1212067,20.64598 L29.32484,20.86298 C29.59544,20.75238 29.8851733,20.67538 30.1311733,20.52698 C32.4558733,19.14378 34.78604,17.77038 36.2483733,15.37638 C36.3877733,15.14538 36.77454,15.05998 37.0465067,14.90738 C37.0970733,15.26858 37.2720067,15.66898 37.1708733,15.98258 C37.00414,16.49358 36.6570067,16.94718 36.4697733,17.54498 C37.0055067,17.17398 37.5344067,16.79598 38.0756067,16.43338 C38.5348067,16.12538 38.9748733,15.75018 39.4832733,15.56538 C39.8481733,15.43238 40.5328733,15.41558 40.6750067,15.61858 C40.8923067,15.92938 40.7980067,16.47958 40.76794,16.92198 C40.7542733,17.10258 40.53424,17.25938 40.4549733,17.44838 C40.2089733,18.04058 39.9862067,18.63978 39.7128733,19.34538 C39.0391067,19.43498 38.8026733,19.17738 38.54164,17.58278 C36.88524,19.03038 35.34774,20.40098 33.7747067,21.73098 C33.3524067,22.08798 33.01894,22.99518 32.28914,22.43938 C31.5702733,21.89058 32.2044067,21.27178 32.5255733,20.72578 C32.5870733,20.62078 32.6390067,20.51018 32.8153067,20.17418 C31.9679733,20.79718 31.3844067,21.36838 30.6833067,21.69318 C30.07924,21.97178 29.2401067,22.22378 28.6961733,22.01238 C28.2561067,21.84018 28.1016733,20.95818 27.77094,20.29038 C26.54504,20.45418 24.96654,22.35538 23.6026067,19.99358 C21.8737733,20.80838 20.16954,21.64838 18.4379733,22.42398 C14.8504733,24.02978 11.1919067,25.44378 7.22037333,25.76858 C5.95074,25.87218 4.64557333,25.90438 3.38960667,25.73358 C0.812073333,25.38498 -0.665293333,23.03718 0.294106667,20.63058 C0.868106667,19.19138 1.74414,17.79558 2.76230667,16.61538 C6.71607333,12.03878 11.5568067,8.62978 17.28314,6.54238 C18.56644,6.07478 19.9659067,5.79058 21.3312067,5.69398 C23.33474,5.55258 24.6043733,7.27738 23.85134,9.12678 C23.3948733,10.24678 22.6035733,11.24778 21.87514,12.23898 C21.7056733,12.46998 21.18224,12.44898 20.8228067,12.54278 C20.8692733,12.15078 20.8023067,11.69718 20.9827067,11.37798 C21.5854067,10.30698 22.3767067,9.33258 22.9056067,8.23218 C23.3415733,7.32498 22.9643733,6.79438 21.96124,6.85598 C20.89934,6.91758 19.80874,7.09818 18.8097067,7.44818 C12.3166733,9.72458 6.99077333,13.63898 2.73634,18.96738 C2.04617333,19.83258 1.55690667,20.91058 1.19064,21.96338 C0.72324,23.30598 1.14280667,24.08158 2.53817333,24.30838 C3.92260667,24.53238 5.39040667,24.65418 6.76800667,24.45818 C12.8578733,23.58598 18.5076733,21.41038 23.88414,18.49558 C25.1496733,17.81098 26.36464,17.02418 27.6698067,16.42498 C28.5485733,16.02178 29.44374,16.25418 29.9507733,16.87718" id="Fill-4"></path>
            <path d="M84.85267,16.0506818 C86.16352,16.7038636 87.72547,15.2502273 89.13892,16.8075 C88.26277,16.9834091 87.65932,17.1538636 87.04372,17.2206818 C83.44732,17.6134091 83.46217,17.6161364 81.20632,20.3475 C78.70747,23.3734091 76.18702,26.3815909 73.64497,29.3734091 C73.38712,29.6775 72.70132,30.0770455 72.58657,29.9870455 C71.97637,29.5029545 72.50287,29.0338636 72.81742,28.6302273 C75.31222,25.4297727 77.82187,22.2415909 80.32477,19.0479545 C80.52592,18.7929545 80.70277,18.5188636 81.06592,18.0047727 C78.88162,18.3061364 76.97137,18.5775 75.05842,18.8311364 C74.41312,18.9170455 73.46137,19.3234091 73.31017,18.4315909 C73.16572,17.5820455 74.22817,17.6993182 74.79247,17.6093182 C76.89037,17.2697727 79.00852,17.0556818 81.10777,16.7215909 C81.67477,16.6315909 82.38622,16.4256818 82.71697,16.0261364 C85.62892,12.5093182 88.48147,8.94477273 91.32187,5.37340909 C91.78087,4.79522727 92.15212,4.13931818 92.47612,3.47795455 C93.04852,2.31477273 92.72317,1.71613636 91.37857,1.75431818 C89.63977,1.80340909 87.86992,1.90431818 86.17837,2.27113636 C80.63257,3.47113636 75.44182,5.55204545 70.75327,8.72113636 C69.97027,9.25159091 69.26962,9.91022727 68.58922,10.5661364 C68.38267,10.7638636 68.25037,11.1743182 68.30977,11.4402273 C68.34352,11.5956818 68.81062,11.7156818 69.09682,11.7538636 C69.57067,11.8165909 70.06747,11.7415909 70.53187,11.8356818 C70.78297,11.8861364 70.98682,12.1656818 71.21227,12.3429545 C70.99222,12.5038636 70.78837,12.7697727 70.54807,12.8052273 C70.04587,12.8829545 69.51667,12.9006818 69.01177,12.8352273 C67.27702,12.6047727 66.48052,10.7829545 67.69957,9.57204545 C68.86597,8.41431818 70.19572,7.34522727 71.62132,6.5175 C76.46782,3.70431818 81.65587,1.69431818 87.23542,0.771136364 C88.47202,0.566590909 89.76937,0.497045455 91.01272,0.614318182 C93.63847,0.859772727 94.70092,2.76068182 93.30772,4.94795455 C91.84432,7.24431818 90.09337,9.36886364 88.42882,11.5370455 C87.42172,12.8502273 86.33767,14.1075 85.29277,15.3961364 C85.13212,15.5925 85.00657,15.8175 84.85267,16.0506818" id="Fill-7"></path>
            <path d="M56.0065733,18.7648725 C57.3199305,18.0694051 58.5457305,17.4192635 59.7715306,16.7691218 C59.8481431,16.8739377 59.9233875,16.9787535 60,17.0849858 C59.8016283,17.3356941 59.6415629,17.6345609 59.3980446,17.8286119 C58.3104207,18.694051 57.2173244,19.5594901 56.0804496,20.3583569 C55.7822081,20.5665722 55.1186891,20.7365439 54.9791449,20.5878187 C54.6932161,20.2847025 54.5632484,19.7606232 54.5331507,19.3172805 C54.5057891,18.9249292 54.7014246,18.51983 54.8765389,17.7974504 C54.1911306,18.0949008 53.6671558,18.2280453 53.2539955,18.5169972 C51.8585535,19.4943343 50.5192027,20.5509915 49.1196565,21.51983 C48.7420663,21.7818697 48.2276681,21.8456091 47.7762015,22 C47.7625207,21.4617564 47.7132698,20.9206799 47.750208,20.388102 C47.766625,20.1728045 47.9732051,19.9716714 48.2345085,19.5155807 C47.4451261,19.8427762 46.9061024,20.1274788 46.3328767,20.2875354 C44.9346985,20.6798867 43.5378884,21.1926346 42.1096125,21.325779 C40.3940396,21.4858357 39.4103898,19.6487252 40.3858311,18.2082153 C41.4173638,16.684136 42.8989949,15.7280453 44.722646,15.3569405 C45.4668818,15.203966 46.0510521,15.4546742 46.3055151,16.1954674 C46.559978,16.9320113 46.0387394,17.3286119 45.4805626,17.5481586 C44.7144376,17.8470255 43.9004297,18.0283286 43.1014708,18.2379603 C42.9072033,18.2889518 42.6075937,18.1572238 42.4913069,18.2620397 C42.0015341,18.6983003 41.5610122,19.194051 41.1027053,19.6671388 C41.5842696,19.7932011 42.1301337,20.1331445 42.5323493,20.0084986 C44.7842097,19.3144476 47.0511189,18.6232295 49.2003732,17.6770538 C49.9979641,17.325779 50.4658476,16.2592068 51.1403113,15.5750708 C51.4098231,15.3045326 51.833928,15.1869688 52.1882608,15 C52.1759481,15.4362606 52.2949711,15.9362606 52.122593,16.296034 C51.8134068,16.9390935 51.3277383,17.4971671 51.0404414,18.2577904 C51.5849374,17.9220963 52.1253292,17.5835694 52.6725613,17.2563739 C54.6001866,16.1062323 55.4990154,16.4844193 56.0065733,18.7648725" id="Fill-10"></path>
            <path d="M91.7892138,16.8981413 C92.8373924,16.0966543 93.6596704,15.3724907 94.5658543,14.8193309 C94.9531123,14.5814126 95.5172183,14.7003717 96,14.6587361 C95.9716011,15.2252788 96.0374349,15.8215613 95.8954403,16.3509294 C95.695357,17.0929368 95.3416613,17.7858736 94.9815113,18.6765799 C94.4264413,18.7881041 94.1734327,18.4788104 93.9720585,16.8327138 C92.6205278,18.1115242 91.3516122,19.3011152 90.0956052,20.5070632 C89.7728901,20.8163569 89.5237541,21.2342007 89.1752218,21.4899628 C88.8395982,21.735316 88.4174868,21.8349442 88.0328105,22 C88.0521734,21.4736059 87.9011427,20.8297398 88.120589,20.4460967 C89.2810724,18.4133829 90.5202982,16.4342007 91.7711418,14.4684015 C91.9299176,14.2185874 92.3223391,14.1501859 92.6063284,14 C92.6308547,14.3628253 92.7625225,14.7672862 92.6618354,15.0810409 C92.4798241,15.6431227 92.1596907,16.1501859 91.7892138,16.8981413" id="Fill-12"></path>
            <path d="M101.584952,13 C101.295478,12.601319 100.963848,12.2299843 101.003194,12.1853665 C101.395248,11.7492642 101.833674,11.3419475 102.312852,11.002277 C102.367655,10.9648556 102.762519,11.3980794 103,11.6110931 C102.574221,12.0284848 102.148442,12.4458765 101.584952,13" id="Fill-14"></path>
        </g>
    </g>
</svg>