<?xml version="1.0" encoding="UTF-8"?>
<svg width="22px" height="23px" viewBox="0 0 22 23" version="1.1" xmlns="http://www.w3.org/2000/svg" xmlns:xlink="http://www.w3.org/1999/xlink">
    <!-- Generator: Sketch 55 (78076) - https://sketchapp.com -->
    <title>icon-facebook</title>
    <desc>Created with Sketch.</desc>
    <g id="Content-Placement" stroke="none" stroke-width="1" fill="none" fill-rule="evenodd">
        <path d="M21.9374478,1.90824864 L21.9374478,21.3417961 C21.9374478,21.6673164 21.8235161,21.9521462 21.5956518,22.1962862 C21.3677875,22.4404263 21.0748194,22.5624963 20.7167476,22.5624963 L15.1503547,22.5624963 L15.1503547,14.0664228 L17.9823792,14.0664228 L18.4218312,10.7949462 L15.1503547,10.7949462 L15.1503547,8.69534184 C15.1503547,8.14195799 15.2480107,7.75133392 15.4433227,7.52346963 C15.7037385,7.23050158 16.1431906,7.08401755 16.7616789,7.08401755 L18.5194872,7.08401755 L18.5194872,4.10550903 C17.8358951,4.04040527 16.9895432,4.00785301 15.9804308,4.00785301 C14.7109026,4.00785301 13.6855144,4.38220133 12.9042663,5.13089721 C12.1230181,5.87959309 11.7323941,6.95380928 11.7323941,8.35354578 L11.7323941,10.7949462 L8.90036955,10.7949462 L8.90036955,14.0664228 L11.7323941,14.0664228 L11.7323941,22.5624963 L1.28320021,22.5624963 C0.9251284,22.5624963 0.632160349,22.4404263 0.40429606,22.1962862 C0.176431772,21.9521462 0.0625,21.6673164 0.0625,21.3417961 L0.0625,1.90824864 C0.0625,1.55017683 0.176431772,1.25720878 0.40429606,1.02934449 C0.632160349,0.8014802 0.9251284,0.687548429 1.28320021,0.687548429 L20.7167476,0.687548429 C21.0422679,0.687548429 21.3270977,0.8014802 21.5712378,1.02934449 C21.8153778,1.25720878 21.9374478,1.55017683 21.9374478,1.90824864 Z" id="icon-facebook" fill="#FFFFFF" fill-rule="nonzero"></path>
    </g>
</svg>