<?xml version="1.0" encoding="UTF-8"?>
<svg width="22px" height="23px" viewBox="0 0 22 23" version="1.1" xmlns="http://www.w3.org/2000/svg" xmlns:xlink="http://www.w3.org/1999/xlink">
    <!-- Generator: Sketch 55 (78076) - https://sketchapp.com -->
    <title>icon-instagram</title>
    <desc>Created with Sketch.</desc>
    <g id="Content-Placement" stroke="none" stroke-width="1" fill="none" fill-rule="evenodd">
        <path d="M10.9999739,6.00980136 C12.0090863,6.00980136 12.944956,6.26207966 13.8075844,6.7666355 C14.6702128,7.27119134 15.3538049,7.95478346 15.8583608,8.81741186 C16.3629166,9.68004026 16.6151949,10.6159099 16.6151949,11.6250224 C16.6151949,12.6341348 16.3629166,13.5700044 15.8583608,14.4326328 C15.3538049,15.2952612 14.6702128,15.9788534 13.8075844,16.4834092 C12.944956,16.987965 12.0090863,17.2402433 10.9999739,17.2402433 C9.9908615,17.2402433 9.05499183,16.987965 8.19236343,16.4834092 C7.32973503,15.9788534 6.64614291,15.2952612 6.14158707,14.4326328 C5.63703123,13.5700044 5.38475294,12.6341348 5.38475294,11.6250224 C5.38475294,10.6159099 5.63703123,9.68004026 6.14158707,8.81741186 C6.64614291,7.95478346 7.32973503,7.27119134 8.19236343,6.7666355 C9.05499183,6.26207966 9.9908615,6.00980136 10.9999739,6.00980136 Z M10.9999739,15.287123 C12.0090863,15.287123 12.871714,14.9290512 13.5878584,14.2129068 C14.3040028,13.4967624 14.6620746,12.6341348 14.6620746,11.6250224 C14.6620746,10.6159099 14.3040028,9.75328227 13.5878584,9.0371379 C12.871714,8.32099352 12.0090863,7.96292171 10.9999739,7.96292171 C9.9908615,7.96292171 9.12823384,8.32099352 8.41208947,9.0371379 C7.69594509,9.75328227 7.33787328,10.6159099 7.33787328,11.6250224 C7.33787328,12.6341348 7.69594509,13.4967624 8.41208947,14.2129068 C9.12823384,14.9290512 9.9908615,15.287123 10.9999739,15.287123 Z M18.1776912,5.76566132 C18.1451389,6.12373314 18.0067932,6.43297769 17.7626531,6.69339348 C17.5185131,6.95380928 17.2174068,7.08401755 16.859335,7.08401755 C16.5012631,7.08401755 16.1920186,6.95380928 15.9316028,6.69339348 C15.671187,6.43297769 15.5409787,6.12373314 15.5409787,5.76566132 C15.5409787,5.40758951 15.671187,5.09834496 15.9316028,4.83792916 C16.1920186,4.57751336 16.5012631,4.44730509 16.859335,4.44730509 C17.2174068,4.44730509 17.5266513,4.57751336 17.7870671,4.83792916 C18.0474829,5.09834496 18.1776912,5.40758951 18.1776912,5.76566132 Z M21.8886198,7.08401755 C21.9211721,7.99547396 21.9374478,9.50914223 21.9374478,11.6250224 C21.9374478,13.7409025 21.9130338,15.262709 21.8642058,16.1904412 C21.8153778,17.1181733 21.677032,17.9238355 21.4491678,18.6074276 C21.1561997,19.421228 20.7086094,20.1292341 20.1063975,20.731446 C19.5041857,21.3336578 18.7961795,21.7812481 17.9823792,22.0742162 C17.298787,22.3020805 16.4931249,22.4404263 15.5653927,22.4892543 C14.6376606,22.5380823 13.115854,22.5624963 10.9999739,22.5624963 C8.8840938,22.5624963 7.36228728,22.5380823 6.43455512,22.4892543 C5.50682296,22.4404263 4.70116082,22.285804 4.0175687,22.0253882 C3.2037683,21.7649724 2.49576218,21.3336578 1.89355032,20.731446 C1.29133846,20.1292341 0.843748137,19.421228 0.550780086,18.6074276 C0.322915797,17.9238355 0.184570021,17.1181733 0.135742013,16.1904412 C0.0869140043,15.262709 0.0625,13.7409025 0.0625,11.6250224 C0.0625,9.50914223 0.0869140043,7.98733571 0.135742013,7.05960355 C0.184570021,6.13187139 0.322915797,5.32620924 0.550780086,4.64261712 C0.843748137,3.82881673 1.29133846,3.12081061 1.89355032,2.51859875 C2.49576218,1.91638689 3.2037683,1.46879657 4.0175687,1.17582851 C4.70116082,0.947964226 5.50682296,0.80961845 6.43455512,0.760790442 C7.36228728,0.711962433 8.8840938,0.687548429 10.9999739,0.687548429 C13.115854,0.687548429 14.6376606,0.711962433 15.5653927,0.760790442 C16.4931249,0.80961845 17.298787,0.947964226 17.9823792,1.17582851 C18.7961795,1.46879657 19.5041857,1.91638689 20.1063975,2.51859875 C20.7086094,3.12081061 21.1561997,3.82881673 21.4491678,4.64261712 C21.677032,5.32620924 21.8235161,6.14000964 21.8886198,7.08401755 Z M19.5448754,18.0703195 C19.7401875,17.5169356 19.8703957,16.6380315 19.9354995,15.433607 C19.9680517,14.7174626 19.9843275,13.708351 19.9843275,12.4062705 L19.9843275,10.8437742 C19.9843275,9.50914223 19.9680517,8.5000298 19.9354995,7.81643768 C19.8703957,6.57946171 19.7401875,5.70055756 19.5448754,5.17972522 C19.1542514,4.17061279 18.4543835,3.47074492 17.4452711,3.08012085 C16.9244387,2.88480882 16.0455346,2.75460054 14.8085586,2.68949678 C14.0924142,2.65694453 13.0833025,2.64066877 11.7812221,2.64066877 L10.2187258,2.64066877 C8.91664531,2.64066877 7.90753363,2.65694453 7.19138925,2.68949678 C5.98696479,2.75460054 5.10806064,2.88480882 4.55467679,3.08012085 C3.54556436,3.47074492 2.84569649,4.17061279 2.45507242,5.17972522 C2.25976039,5.70055756 2.12955212,6.57946171 2.06444835,7.81643768 C2.0318961,8.53258206 2.01562034,9.54169374 2.01562034,10.8437742 L2.01562034,12.4062705 C2.01562034,13.708351 2.0318961,14.7174626 2.06444835,15.433607 C2.12955212,16.6380315 2.25976039,17.5169356 2.45507242,18.0703195 C2.87824874,19.0794319 3.57811662,19.7792998 4.55467679,20.1699239 C5.10806064,20.3652359 5.98696479,20.4954442 7.19138925,20.5605479 C7.90753363,20.5931002 8.91664531,20.6093759 10.2187258,20.6093759 L11.7812221,20.6093759 C13.115854,20.6093759 14.1249665,20.5931002 14.8085586,20.5605479 C16.0455346,20.4954442 16.9244387,20.3652359 17.4452711,20.1699239 C18.4543835,19.7467475 19.1542514,19.0468797 19.5448754,18.0703195 Z" id="icon-instagram" fill="#FFFFFF" fill-rule="nonzero"></path>
    </g>
</svg>